<?xml version="1.0" encoding="UTF-8"?>
<svg version="1.1" xmlns="http://www.w3.org/2000/svg" width="500" height="500">
<path d="M0 0 C9.14475964 6.46824462 16.11440516 16.14183386 19 27 C19.51852017 30.86895823 19.92841244 34.68898592 20.21484375 38.58203125 C21.1821899 42.79311525 22.81379334 44.16939677 26 47 C35.63624669 59.87856028 37.32641151 74.38493483 36 90 C35.67937433 91.33644606 35.34770118 92.67034111 35 94 C36.28409649 94.00081715 36.28409649 94.00081715 37.59413433 94.00165081 C58.41727673 94.01661348 79.24020491 94.05903949 100.06322765 94.13209057 C110.13307814 94.16675416 120.20279154 94.19209789 130.27270508 94.19555664 C139.04893417 94.19859463 147.82491921 94.21906283 156.60105401 94.26052457 C161.24867875 94.28187131 165.89595638 94.29444662 170.5436306 94.28615379 C174.91783824 94.27862419 179.29134194 94.29439153 183.66542053 94.32806015 C185.27101886 94.33630666 186.87668701 94.33602774 188.48227882 94.32659721 C190.67527084 94.31499138 192.86594951 94.33406324 195.0587616 94.36076355 C196.28566806 94.36352893 197.51257452 94.36629431 198.77665997 94.36914349 C202.92278456 95.18060293 204.35747932 96.77410512 207 100 C208.35891931 102.36790083 209.56090777 104.64637906 210.70703125 107.109375 C211.19672142 108.12869614 211.19672142 108.12869614 211.69630432 109.16860962 C212.7450358 111.35779427 213.77879603 113.55368563 214.8125 115.75 C215.53437202 117.26298474 216.25719427 118.77551647 216.98095703 120.28759766 C220.7946454 128.27054265 224.5478382 136.28181958 228.27148438 144.30712891 C230.62703916 149.33274388 233.20031702 154.22872946 235.8125 159.125 C241.05471505 168.95201056 245.84386585 178.97369425 250.60009766 189.04296875 C252.92477915 193.95342258 255.27649223 198.85090928 257.625 203.75 C260.21659968 209.15744612 262.80362022 214.56631685 265.33984375 220 C269.00992433 227.85211661 272.79150036 235.60361897 276.875 243.25 C282.61134296 253.99588925 287.79815403 264.98810918 293 276 C294.33863925 278.82623182 295.67942024 281.65139582 297.02441406 284.47460938 C297.93560886 286.38923849 298.84241364 288.30596222 299.74511719 290.22460938 C302.03241874 295.0496118 304.39946122 299.78006152 307.01953125 304.43359375 C315.35432818 319.54665034 320.66024043 335.18955175 325.8125 351.625 C326.17314545 352.76666626 326.53379089 353.90833252 326.90536499 355.08459473 C327.93872084 358.37720552 328.95227063 361.67512483 329.95703125 364.9765625 C330.42008163 366.46426651 330.42008163 366.46426651 330.89248657 367.98202515 C332.53081316 373.48936075 333.71038834 378.25306471 333 384 C331.47888184 386.19110441 331.47888184 386.19110441 329 388 C326.16901079 388.39197625 323.72765285 388.53772548 320.89770508 388.50336456 C320.07036173 388.50917833 319.24301838 388.51499209 318.39060402 388.52098203 C315.59995485 388.53565664 312.81017497 388.52166221 310.01953125 388.50793457 C308.00602262 388.51254054 305.99251736 388.51889139 303.97901917 388.52684355 C298.43172013 388.54360177 292.88469497 388.53526104 287.33739471 388.52289867 C281.36048998 388.51387701 275.38363353 388.52780355 269.40673828 388.53881836 C258.36999932 388.55560817 247.33333604 388.55410934 236.29659653 388.54317249 C226.1015302 388.53311901 215.90649604 388.53047936 205.71142578 388.53526306 C205.03574401 388.5355686 204.36006224 388.53587414 203.66390526 388.53618894 C200.92124518 388.53743425 198.17858511 388.53870785 195.43592507 388.540028 C169.69603975 388.55227009 143.95621032 388.54116051 118.21633363 388.51964041 C95.33690081 388.5006573 72.45755704 388.50235578 49.578125 388.52148438 C23.88598768 388.54289265 -1.80610024 388.55140197 -27.49824524 388.53903532 C-30.23597208 388.53775241 -32.97369892 388.53650105 -35.71142578 388.53526306 C-36.38554752 388.53494675 -37.05966926 388.53463044 -37.75421894 388.53430455 C-47.94406964 388.52975041 -58.1338847 388.53508365 -68.32373047 388.54518127 C-79.90748683 388.55660281 -91.49115843 388.55340597 -103.0749054 388.5320583 C-108.98926771 388.52151929 -114.90344894 388.51747454 -120.81781006 388.53065491 C-126.22615637 388.54252565 -131.6341528 388.53610441 -137.04246712 388.5147447 C-139.00471715 388.51025599 -140.96699641 388.51259531 -142.92922783 388.52224785 C-145.58581396 388.53431916 -148.24118371 388.52203201 -150.89770508 388.50336456 C-152.05460877 388.51741156 -152.05460877 388.51741156 -153.23488426 388.53174233 C-156.6816949 388.48295366 -158.6548303 388.25063882 -161.47792053 386.20070219 C-163.76713957 382.89082944 -163.60316463 379.8267325 -163 376 C-162.14542089 373.02727864 -160.96913061 370.25598609 -159.7109375 367.43359375 C-159.37003082 366.63703873 -159.02912415 365.8404837 -158.67788696 365.01979065 C-157.59036766 362.48630487 -156.48345572 359.96188573 -155.375 357.4375 C-154.29615342 354.94500074 -153.2213984 352.45076788 -152.14718628 349.95626831 C-151.441647 348.32069537 -150.73326635 346.68634509 -150.02200317 345.05325317 C-148.38300091 341.27901499 -146.78346676 337.50008058 -145.30029297 333.66162109 C-145.0387442 332.98599625 -144.77719543 332.3103714 -144.50772095 331.61427307 C-143.81920938 329.81575356 -143.14390276 328.01219404 -142.46972656 326.20825195 C-140.27927376 321.42673364 -137.13095094 317.60015867 -133.7734375 313.5703125 C-130.4946673 309.47947752 -127.76073719 305.07506436 -125 300.625 C-123.98442088 298.99215896 -122.96879621 297.35934626 -121.953125 295.7265625 C-121.2115918 294.53401855 -121.2115918 294.53401855 -120.45507812 293.31738281 C-114.87448045 284.42962558 -108.92831123 275.82776359 -102.6953125 267.38671875 C-100.54850172 264.36436533 -98.7433746 261.26882738 -97 258 C-98.28583984 257.85111328 -98.28583984 257.85111328 -99.59765625 257.69921875 C-111.97693921 255.15514108 -121.67308543 246.6437222 -128.4921875 236.4609375 C-133.4493423 228.37024443 -135.30182146 219.92833794 -133.5390625 210.546875 C-131.80541019 204.06097577 -128.82792976 196.82792976 -124 192 C-123.9488413 189.89775619 -123.96475164 187.79383152 -124.0078125 185.69140625 C-124.02457031 184.38623047 -124.04132813 183.08105469 -124.05859375 181.73632812 C-124.08926045 179.66291859 -124.1243775 177.58995238 -124.17138672 175.5168457 C-124.40020314 164.86659827 -123.82274439 155.82305603 -118.0625 146.625 C-117.57910156 145.83351562 -117.09570312 145.04203125 -116.59765625 144.2265625 C-115 142 -115 142 -112.87109375 140.18359375 C-110.28780336 137.16885611 -110.25991051 134.24326863 -110 130.4375 C-108.69185397 117.38261602 -104.58895869 107.74164777 -94.5859375 98.85546875 C-91.43107291 96.33260472 -88.85223608 94.28407869 -85 93 C-84.86464844 92.00742188 -84.72929688 91.01484375 -84.58984375 89.9921875 C-81.90399874 72.31293039 -74.11255814 59.83143956 -60.60546875 48.05859375 C-58.76956665 46.84805976 -57.14704303 46.41450505 -55 46 C-55.061875 44.9275 -55.12375 43.855 -55.1875 42.75 C-55.06581752 28.85386111 -48.25707725 15.14967257 -39 5 C-27.82951308 -4.20512298 -12.9724081 -8.32705053 0 0 Z " fill="#090807" transform="translate(165,58)"/>
<path d="M0 0 C0.69771011 0.00359528 1.39542023 0.00719055 2.11427307 0.01089478 C3.2117688 0.01067574 3.2117688 0.01067574 4.33143616 0.01045227 C6.76094989 0.0111515 9.19038789 0.01894432 11.61988831 0.02676392 C13.29997719 0.02862806 14.98006662 0.03005198 16.66015625 0.03105164 C21.09071849 0.03487709 25.52124815 0.04470761 29.95179749 0.05575562 C34.46941182 0.06596914 38.98703139 0.07054913 43.50465393 0.07559204 C52.37511098 0.08632986 61.24554381 0.10340661 70.11598206 0.12442017 C71.07507571 2.02051377 72.03160726 3.91790348 72.98707581 5.81582642 C73.52002258 6.8722937 74.05296936 7.92876099 74.60206604 9.01724243 C77.19263614 14.33415675 79.25065102 19.82336303 81.33082581 25.35488892 C81.75492737 26.47508423 82.17902893 27.59527954 82.61598206 28.74942017 C83.18832581 30.2846936 83.18832581 30.2846936 83.77223206 31.85098267 C84.7651207 34.26970559 85.80021628 36.50116739 86.99806213 38.81192017 C89.0639823 42.91577846 90.73493149 47.09924307 92.34645081 51.39785767 C95.7977192 60.42899114 99.53001522 69.32410471 103.33952332 78.20904541 C105.20890721 82.5700331 107.06777573 86.93550606 108.92848206 91.30020142 C109.47421623 92.57926613 109.47421623 92.57926613 110.03097534 93.88417053 C113.02025963 100.89200419 115.98962817 107.90775511 118.92848206 114.93692017 C119.30593567 115.8342688 119.68338928 116.73161743 120.07228088 117.65615845 C127.11598206 134.55133696 127.11598206 134.55133696 127.11598206 139.12442017 C127.77598206 139.12442017 128.43598206 139.12442017 129.11598206 139.12442017 C130.54827372 142.70514933 131.98056539 146.2858785 133.41285706 149.86660767 C133.80217407 150.83863884 133.80217407 150.83863884 134.19935608 151.83030701 C134.80107458 153.33627602 135.40051575 154.84315736 135.99745178 156.35102844 C138.46020344 162.55460144 141.03788646 168.70283123 143.66285706 174.83926392 C144.51598326 176.84370988 145.36884024 178.84827044 146.22145081 180.85293579 C147.55106187 183.97685477 148.88229486 187.10003935 150.21803284 190.22134399 C151.51703793 193.25859123 152.80927507 196.29864189 154.10035706 199.33926392 C154.70493744 200.74546242 154.70493744 200.74546242 155.32173157 202.18006897 C155.68921509 203.0484993 156.05669861 203.91692963 156.43531799 204.81167603 C156.76078613 205.57427231 157.08625427 206.33686859 157.42158508 207.12257385 C158.11598206 209.12442017 158.11598206 209.12442017 158.11598206 212.12442017 C75.28598206 212.12442017 -7.54401794 212.12442017 -92.88401794 212.12442017 C-91.96072524 207.50795666 -90.50380077 203.72974295 -88.57151794 199.49942017 C-86.12250744 194.02983912 -83.87483966 188.5625272 -81.89402771 182.90298462 C-78.35994388 173.18062348 -74.01666009 163.72826248 -69.95726013 154.2147522 C-63.63047335 139.38614612 -57.32632915 124.5564369 -51.37181091 109.57339478 C-49.57414201 105.08659304 -47.72225189 100.73444288 -45.46214294 96.46035767 C-43.2683114 92.18684655 -41.65162896 87.79593309 -40.10667419 83.25723267 C-36.6965067 73.27636309 -32.53039216 63.66461645 -28.32151794 53.99942017 C-26.72528141 50.31169107 -25.13283105 46.6223306 -23.54026794 42.93301392 C-22.94876198 41.56491325 -22.94876198 41.56491325 -22.3453064 40.16917419 C-18.03378309 30.18451469 -13.84413821 20.14957707 -9.6806488 10.10244751 C-9.18959656 8.92247192 -8.69854431 7.74249634 -8.19261169 6.52676392 C-7.76778503 5.5005896 -7.34295837 4.47441528 -6.90525818 3.41714478 C-5.20266274 -0.40524914 -4.05691048 0.00881811 0 0 Z " fill="#E28D64" transform="translate(266.88401794433594,166.87557983398438)"/>
<path d="M0 0 C86.46 0 172.92 0 262 0 C266.33671171 18.43102477 266.33671171 18.43102477 267.5625 24.85546875 C268.01066265 27.05226601 268.55428954 29.20709291 269.125 31.375 C270 35 270 35 270 39 C179.58 39 89.16 39 -4 39 C-2.91474529 25.97694352 -1.44314096 12.98826863 0 0 Z " fill="#CB7350" transform="translate(169,393)"/>
<path d="M0 0 C6.31509982 4.39311292 11.52834678 10.64183756 13.4296875 18.20703125 C14.178341 22.90253348 14.10816456 27.65822817 14.203125 32.40625 C15.02842517 36.82064628 16.51498233 38.12636598 19.875 41 C28.7621771 51.10001538 30.91689625 60.95018324 30.0859375 74.09277344 C29.72661956 77.34160646 28.69784001 80.20918532 27.5078125 83.23046875 C26.39665172 86.33760353 26.66259348 87.93707826 27.875 91 C29.8064359 93.36579812 31.82481571 95.57503923 33.96484375 97.75390625 C37.76206192 102.21893785 38.39023254 106.61477825 38.24609375 112.3125 C37.1940124 119.93178388 33.01929335 125.76855201 27.09765625 130.47265625 C12.51237847 140.4952285 -5.66402779 142.49225113 -22.859375 139.30859375 C-25.77241723 138.40675814 -28.39445685 137.35263017 -31.125 136 C-32.43984375 135.36384766 -32.43984375 135.36384766 -33.78125 134.71484375 C-41.41513126 130.58748927 -48.46815703 124.49676351 -51.125 116 C-52.03230879 109.07580135 -51.74999055 103.53590631 -47.640625 97.78515625 C-46.125 96 -46.125 96 -44.421875 94.30859375 C-41.0340439 90.95471067 -41.0340439 90.95471067 -39.93359375 86.4453125 C-40.2801626 82.76635083 -40.95621603 79.50635191 -42.125 76 C-42.92393971 62.99430927 -42.34294439 52.70823057 -34.125 42 C-33.238125 41.34 -32.35125 40.68 -31.4375 40 C-28.13616397 35.71718569 -28.56304253 31.8610831 -28.34765625 26.5703125 C-27.75789807 17.11348842 -24.11592222 9.12257724 -17.49609375 2.328125 C-12.06204305 -2.16032523 -6.52093645 -2.08669966 0 0 Z " fill="#94E370" transform="translate(97.125,165)"/>
<path d="M0 0 C6.27 0 12.54 0 19 0 C18.09973031 4.50134847 17.35193984 6.30899952 15 10 C14.08561983 11.76132818 13.19093698 13.53297295 12.3125 15.3125 C10.60040535 18.77042516 8.88847784 22.22793223 7.1484375 25.671875 C3.04369573 33.80892801 -0.90495788 42.00626738 -4.77124023 50.25927734 C-7.25937724 55.5351046 -9.94680743 60.65022056 -12.80859375 65.734375 C-13.88759959 67.78625495 -14.69403977 69.74718603 -15.4375 71.9375 C-17.05623802 76.64831843 -19.69078786 80.74043192 -22.28125 84.97265625 C-23.78439321 87.62023805 -24.97909584 90.2660053 -26.16213989 93.06492615 C-27.58888108 96.36004612 -29.16256669 99.58274901 -30.73046875 102.8125 C-31.26164055 103.90957275 -31.26164055 103.90957275 -31.80354309 105.02880859 C-32.55154105 106.57218342 -33.3003906 108.11514577 -34.05004883 109.65771484 C-35.17013283 111.96423683 -36.28540725 114.27304021 -37.40039062 116.58203125 C-41.25762037 124.54208074 -45.20632444 132.43025461 -49.44999695 140.19250488 C-51.72989051 144.38288797 -53.42377722 148.50776507 -55 153 C-55.59467619 154.26217673 -56.21056506 155.51450775 -56.84375 156.7578125 C-57.19920898 157.4593042 -57.55466797 158.1607959 -57.92089844 158.88354492 C-58.27700195 159.5819751 -58.63310547 160.28040527 -59 161 C-59.6204171 162.22754868 -60.24023034 163.45540279 -60.859375 164.68359375 C-61.31957031 165.59637085 -61.31957031 165.59637085 -61.7890625 166.52758789 C-64.95943473 172.8288638 -68.03160976 179.16357932 -71 185.5625 C-73.94928844 191.91712222 -77.10825729 198.12391272 -80.47460938 204.26782227 C-81.875095 206.83169502 -83.07326142 209.21978425 -84 212 C-109.41 212 -134.82 212 -161 212 C-159.45173911 208.12934778 -158.04485363 205.29760167 -155.8125 201.875 C-153.86402709 198.87891718 -151.92829207 195.88351062 -150.0546875 192.83984375 C-149.43851563 191.84082031 -148.82234375 190.84179688 -148.1875 189.8125 C-147.62417969 188.89082031 -147.06085938 187.96914063 -146.48046875 187.01953125 C-145.74763672 186.01986328 -145.74763672 186.01986328 -145 185 C-144.34 185 -143.68 185 -143 185 C-142.61521484 183.67162109 -142.61521484 183.67162109 -142.22265625 182.31640625 C-140.98983376 178.97242448 -139.59287005 176.75472106 -137.4375 173.9375 C-133.77542811 169.06815167 -130.29001604 164.11298465 -126.88256836 159.06420898 C-125.94599071 157.69257591 -124.97625318 156.34368327 -124 155 C-123.67 155 -123.34 155 -123 155 C-122.99413376 155.56740906 -122.98826752 156.13481812 -122.98222351 156.71942139 C-122.91829507 162.62447443 -122.83387704 168.5289822 -122.73754883 174.43359375 C-122.70429212 176.63729667 -122.67626254 178.84108491 -122.65356445 181.04492188 C-122.62003262 184.21260955 -122.56771664 187.37951469 -122.51171875 190.546875 C-122.50532883 191.53242371 -122.4989389 192.51797241 -122.49235535 193.53338623 C-122.47256119 194.4540387 -122.45276703 195.37469116 -122.43237305 196.32324219 C-122.41571846 197.53569611 -122.41571846 197.53569611 -122.39872742 198.77264404 C-121.89897444 201.56434513 -120.95086102 202.96152852 -119 205 C-115.87723127 205.45540377 -113.94670526 205.69184014 -111.33952332 203.7865448 C-109.56375777 201.4181764 -109.60399427 199.92353562 -109.56762695 196.9777832 C-109.54783279 195.95695145 -109.52803864 194.93611969 -109.50764465 193.88435364 C-109.50125473 192.78427475 -109.49486481 191.68419586 -109.48828125 190.55078125 C-109.47033005 189.4230278 -109.45237885 188.29527435 -109.43388367 187.13334656 C-109.37964147 183.5264359 -109.34583965 179.91965862 -109.3125 176.3125 C-109.27933929 173.86912201 -109.24485081 171.42576165 -109.20898438 168.98242188 C-109.12390701 162.98840084 -109.05561608 156.99436284 -109 151 C-107.72342529 150.75548096 -106.44685059 150.51096191 -105.1315918 150.2590332 C-103.42485853 149.91932933 -101.71824017 149.57904777 -100.01171875 149.23828125 C-98.75530579 149.00002625 -98.75530579 149.00002625 -97.47351074 148.75695801 C-83.50210034 145.92880584 -71.14533858 138.44569553 -63.125 126.5625 C-58.25749249 118.39836241 -57.74126373 111.41510865 -57.24609375 101.9765625 C-57 99 -57 99 -56 97 C-54.54284208 96.26700541 -53.05810216 95.58847192 -51.5625 94.9375 C-41.69522382 90.10973397 -34.80687486 82.82660026 -30 73 C-29.04882372 70.14647115 -28.93894498 68.68448749 -29.0703125 65.76171875 C-29.32464046 52.39171087 -29.32464046 52.39171087 -25.83984375 48.73046875 C-23.0625 47.375 -23.0625 47.375 -20.0546875 46.2265625 C-11.1946512 42.66895202 -4.96612758 34.4280211 -1 26 C0.69793677 21.70010552 1.24844424 18.17764083 1.1875 13.5625 C1.18105469 12.49128906 1.17460937 11.42007813 1.16796875 10.31640625 C0.99291265 6.86006607 0.48942685 3.42598795 0 0 Z " fill="#64524D" transform="translate(206,167)"/>
<path d="M0 0 C0.495 0.33 0.99 0.66 1.5 1 C1.5 1.66 1.5 2.32 1.5 3 C2.09683594 3.24621094 2.69367188 3.49242188 3.30859375 3.74609375 C8.95000952 6.97406962 12.13776723 14.38136583 13.99609375 20.40234375 C14.63384969 23.69000035 14.73897849 26.90526586 14.875 30.25 C15.07106465 35.48222882 15.07106465 35.48222882 17.6875 39.875 C19.0796875 40.926875 19.0796875 40.926875 20.5 42 C27.74660185 50.10021159 29.73648435 57.38773018 29.8125 68.0625 C29.81813965 68.81837402 29.8237793 69.57424805 29.82958984 70.35302734 C29.78111844 74.12968939 29.46223823 77.52995295 28.48046875 81.18359375 C27.56352447 84.75273543 27.01915489 87.35785405 27.5 91 C29.13557734 93.42385063 29.13557734 93.42385063 31.375 95.5 C36.63455001 101.0847872 38.06587931 105.72810327 37.87109375 113.34765625 C36.79625183 121.02994747 32.57135468 126.77672651 26.62109375 131.5234375 C23.45536167 133.72720679 20.23578662 135.93263239 16.5 137 C14.265625 136.59375 14.265625 136.59375 12.5 136 C11.52960083 132.22622546 11.71813869 129.77256849 12.5 126 C13.86166209 109.19122954 12.2587585 95.58072794 1.5 82 C0.96375 81.56816406 0.4275 81.13632813 -0.125 80.69140625 C-2.27126655 78.0512545 -2.09210569 75.4054827 -2.375 72.0625 C-3.60505787 60.66515884 -7.72429084 50.07048229 -16.4140625 42.28515625 C-21.43085924 38.32401751 -26.4478457 36.01738477 -32.5 34 C-31.94377894 22.87557871 -27.77952536 13.39477298 -20.5 5 C-19.84 4.21625 -19.18 3.4325 -18.5 2.625 C-13.41344004 -1.50782997 -6.06782212 -2.42712885 0 0 Z " fill="#3E9678" transform="translate(156.5,69)"/>
<path d="M0 0 C7.33385582 3.48724179 10.84579494 9.7747967 14 17 C15.28272581 20.70223855 15.0698684 24.35928425 15.125 28.25 C15.38523839 34.47777392 16.62982153 37.98720589 21.15625 42.328125 C21.7646875 42.87984375 22.373125 43.4315625 23 44 C29.4093013 51.02295781 31.57669782 60.44847963 31.234375 69.828125 C30.74975838 74.3189057 30.03178941 78.93642119 28 83 C27.49971343 86.16848161 27.2590011 87.95251155 28 91 C29.83314952 93.48967283 31.87089381 95.6228575 34.01953125 97.84375 C37.7243171 101.87736299 38.82820326 105.45382937 39.4375 110.9375 C39.14052875 117.62580897 35.3521562 123.38040285 30.98046875 128.2578125 C26.46027232 132.23415887 20.157407 137 14 137 C12.875 134.9375 12.875 134.9375 12 132 C12.4925898 130.3310143 12.98780893 128.66271632 13.50195312 127.00024414 C14.38731294 123.44448289 14.3392935 119.89702316 14.3125 116.25 C14.30758545 115.45722656 14.3026709 114.66445312 14.29760742 113.84765625 C14.06089196 101.94147526 10.30027857 89.85363048 2 81 C1.01 80.34 0.02 79.68 -1 79 C-1.5546875 75.9453125 -1.5546875 75.9453125 -1.875 72.125 C-3.16470128 60.18846393 -7.86295792 48.09938702 -17.203125 40.1171875 C-21.61502395 37.01085049 -25.73223497 35.12080107 -31 34 C-30.25375074 22.24657419 -25.32356797 11.45716811 -16.375 3.5625 C-10.94929182 -0.90797787 -6.81543961 -1.86385993 0 0 Z " fill="#52C87A" transform="translate(126,117)"/>
<path d="M0 0 C1.13072182 0.00539291 1.13072182 0.00539291 2.2842865 0.01089478 C3.07447174 0.01074875 3.86465698 0.01060272 4.67878723 0.01045227 C7.30309245 0.0111516 9.92732759 0.01894489 12.55162048 0.02676392 C14.36623089 0.02862803 16.18084179 0.03005196 17.99545288 0.03105164 C22.78111653 0.03487737 27.56675003 0.04470813 32.35240173 0.05575562 C37.23195488 0.06596854 42.11151287 0.070549 46.99107361 0.07559204 C56.57246709 0.08633035 66.15383816 0.10340744 75.73521423 0.12442017 C74.36939763 7.02978255 72.91530457 13.89844935 71.29771423 20.74942017 C70.99123962 22.08359985 70.99123962 22.08359985 70.67857361 23.44473267 C70.47167908 24.32129517 70.26478455 25.19785767 70.05162048 26.10098267 C69.78007141 27.26234741 69.78007141 27.26234741 69.5030365 28.44717407 C68.4625627 32.07510273 67.06041811 35.59054315 65.73521423 39.12442017 C37.35521423 39.12442017 8.97521423 39.12442017 -20.26478577 39.12442017 C-18.85715504 32.08626653 -16.79297544 26.00741606 -13.44447327 19.64785767 C-11.44659067 15.37424125 -9.88947508 10.92824309 -8.28309631 6.49526978 C-5.92012022 0.01191672 -5.92012022 0.01191672 0 0 Z " fill="#4F413C" transform="translate(40.26478576660156,392.8755798339844)"/>
<path d="M0 0 C8.25 0 16.5 0 25 0 C27.98668342 8.69651936 30.76857137 17.41331562 33.3125 26.25 C33.57885254 27.16676514 33.84520508 28.08353027 34.11962891 29.02807617 C34.48773682 30.32128784 34.48773682 30.32128784 34.86328125 31.640625 C35.08282471 32.40922852 35.30236816 33.17783203 35.52856445 33.96972656 C36 36 36 36 36 39 C26.43 39 16.86 39 7 39 C5.9984544 34.2503233 5.00000202 29.50020711 4.00927734 24.74829102 C3.67155217 23.13300623 3.33205265 21.51809134 2.99072266 19.90356445 C2.49952181 17.57859486 2.01478363 15.25235592 1.53125 12.92578125 C1.30157532 11.84892815 1.30157532 11.84892815 1.06726074 10.75032043 C0.2979928 7.01594913 0 3.85749736 0 0 Z " fill="#F7A138" transform="translate(445,393)"/>
<path d="M0 0 C1.00023193 0.00523682 2.00046387 0.01047363 3.03100586 0.01586914 C4.1105957 0.0190918 5.19018555 0.02231445 6.30249023 0.02563477 C8.00695312 0.03820312 8.00695312 0.03820312 9.74584961 0.05102539 C11.45611328 0.05779297 11.45611328 0.05779297 13.20092773 0.06469727 C16.02845312 0.07652792 18.85587601 0.09301129 21.68334961 0.11352539 C21.4000515 4.01001299 21.1051062 7.90554153 20.80834961 11.80102539 C20.7297168 12.88448242 20.65108398 13.96793945 20.57006836 15.08422852 C20.4862793 16.17026367 20.40249023 17.25629883 20.31616211 18.37524414 C20.24284668 19.35452881 20.16953125 20.33381348 20.09399414 21.34277344 C19.48255948 26.95728496 18.542124 32.53149184 17.68334961 38.11352539 C7.78334961 38.11352539 -2.11665039 38.11352539 -12.31665039 38.11352539 C-10.56848776 30.24679356 -8.70069532 22.43181307 -6.75415039 14.61352539 C-6.43447177 13.31405045 -6.11481019 12.01457131 -5.79516602 10.71508789 C-5.4915918 9.49563477 -5.18801758 8.27618164 -4.87524414 7.01977539 C-4.59994873 5.90924805 -4.32465332 4.7987207 -4.04101562 3.65454102 C-3.04170998 0.14905629 -3.04170998 0.14905629 0 0 Z " fill="#F9A238" transform="translate(133.316650390625,392.886474609375)"/>
<path d="M0 0 C2.1446143 2.1446143 2.44564603 3.01739998 3.125 5.875 C3.29257812 6.55304688 3.46015625 7.23109375 3.6328125 7.9296875 C4 10 4 10 4 14 C-86.42 14 -176.84 14 -270 14 C-269.67 10.7 -269.34 7.4 -269 4 C-268.67 4 -268.34 4 -268 4 C-268 6.64 -268 9.28 -268 12 C-178.9 12 -89.8 12 2 12 C2 10.68 2 9.36 2 8 C1.34 8 0.68 8 0 8 C0 5.36 0 2.72 0 0 Z " fill="#93583D" transform="translate(435,418)"/>
<path d="M0 0 C86.46 0 172.92 0 262 0 C262 2.31 262 4.62 262 7 C261.34 7.33 260.68 7.66 260 8 C259.67 6.02 259.34 4.04 259 2 C173.86 2 88.72 2 1 2 C1 3.65 1 5.3 1 7 C0.67 7 0.34 7 0 7 C0 4.69 0 2.38 0 0 Z " fill="#A6644E" transform="translate(169,393)"/>
<path d="M0 0 C-0.78823237 6.17901697 -3.11370011 10.52343097 -6 16 C-12.93 16 -19.86 16 -27 16 C-24.06556867 -1.60658799 -15.90992064 -1.45041352 0 0 Z " fill="#FCDD42" transform="translate(164,364)"/>
<path d="M0 0 C6.93 0 13.86 0 21 0 C27 10.5 27 10.5 27 15 C19.74 15 12.48 15 5 15 C0 3.375 0 3.375 0 0 Z " fill="#F6D842" transform="translate(435,364)"/>
<path d="M0 0 C6.27 0 12.54 0 19 0 C20.155 2.10375 21.31 4.2075 22.5 6.375 C22.86544922 7.0354834 23.23089844 7.6959668 23.60742188 8.37646484 C26 12.77777778 26 12.77777778 26 15 C19.07 15 12.14 15 5 15 C0 2.25 0 2.25 0 0 Z " fill="#F9BC44" transform="translate(423,336)"/>
<path d="M0 0 C6.27 0 12.54 0 19 0 C17.91072647 5.44636767 16.1170177 9.87818299 14 15 C7.4 15 0.8 15 -6 15 C-4.84116563 9.20582813 -2.71733945 5.2256528 0 0 Z " fill="#FABC41" transform="translate(157,336)"/>
<path d="M0 0 C1.66748747 2.50123121 2.89954361 4.77676357 4.125 7.5 C4.65480469 8.66015625 4.65480469 8.66015625 5.1953125 9.84375 C6 12 6 12 6 15 C-76.83 15 -159.66 15 -245 15 C-244.67 13.35 -244.34 11.7 -244 10 C-243.67 11.32 -243.34 12.64 -243 14 C-161.82 14 -80.64 14 3 14 C3 13.34 3 12.68 3 12 C2.34 12 1.68 12 1 12 C0.03929566 9.11788698 -0.10581883 7.30149956 -0.0625 4.3125 C-0.05347656 3.50425781 -0.04445313 2.69601562 -0.03515625 1.86328125 C-0.01775391 0.94095703 -0.01775391 0.94095703 0 0 Z " fill="#CC8A6A" transform="translate(419,364)"/>
<path d="M0 0 C5.94 0 11.88 0 18 0 C24 12.75 24 12.75 24 15 C17.73 15 11.46 15 5 15 C0 3.375 0 3.375 0 0 Z " fill="#FDDE3F" transform="translate(411,307)"/>
<path d="M0 0 C5.28 0 10.56 0 16 0 C13.25 10.5 13.25 10.5 11 15 C5.06 15 -0.88 15 -7 15 C-5.11141227 9.33423682 -2.94939624 5.12263557 0 0 Z " fill="#F1D441" transform="translate(172,307)"/>
<path d="M0 0 C4.95 0 9.9 0 15 0 C16.155 2.10375 17.31 4.2075 18.5 6.375 C18.86544922 7.0354834 19.23089844 7.6959668 19.60742188 8.37646484 C22 12.77777778 22 12.77777778 22 15 C16.39 15 10.78 15 5 15 C0 3.375 0 3.375 0 0 Z " fill="#F6B940" transform="translate(399,278)"/>
<path d="M0 0 C1.93166016 0.01740234 1.93166016 0.01740234 3.90234375 0.03515625 C5.19269531 0.04417969 6.48304688 0.05320312 7.8125 0.0625 C8.81152344 0.07410156 9.81054688 0.08570313 10.83984375 0.09765625 C10.38449276 1.66102798 9.92541599 3.22331474 9.46484375 4.78515625 C9.08199219 6.09033203 9.08199219 6.09033203 8.69140625 7.421875 C7.86367061 10.02278744 6.85353566 12.56342648 5.83984375 15.09765625 C0.55984375 15.09765625 -4.72015625 15.09765625 -10.16015625 15.09765625 C-9.19078125 12.80828125 -8.22140625 10.51890625 -7.22265625 8.16015625 C-6.91851807 7.43836182 -6.61437988 6.71656738 -6.30102539 5.97290039 C-3.8063869 0.11762629 -3.8063869 0.11762629 0 0 Z " fill="#FCBE42" transform="translate(189.16015625,277.90234375)"/>
<path d="M0 0 C4.29 0 8.58 0 13 0 C14.17176518 2.12232979 15.33754785 4.24757791 16.5 6.375 C16.83386719 6.97828125 17.16773438 7.5815625 17.51171875 8.203125 C20 12.7734375 20 12.7734375 20 15 C15.05 15 10.1 15 5 15 C1.125 4.5 1.125 4.5 0 0 Z " fill="#F7DB46" transform="translate(387,250)"/>
<path d="M0 0 C4.29 0 8.58 0 13 0 C11.32819664 5.25423914 9.62305301 10.12861585 7 15 C2.71 15 -1.58 15 -6 15 C-4.32819664 9.74576086 -2.62305301 4.87138415 0 0 Z " fill="#F1D84C" transform="translate(199,250)"/>
<path d="M0 0 C24.75 0 49.5 0 75 0 C74.67 0.99 74.34 1.98 74 3 C49.91 2.67 25.82 2.34 1 2 C-0.70855601 7.97866048 -0.70855601 7.97866048 -2 14 C-3.32 14.33 -4.64 14.66 -6 15 C-5.56856647 13.62308448 -5.12948836 12.24856381 -4.6875 10.875 C-4.44386719 10.10929688 -4.20023437 9.34359375 -3.94921875 8.5546875 C-2.85531153 5.61059153 -1.40458778 2.80917555 0 0 Z " fill="#B87F63" transform="translate(262,167)"/>
<path d="M0 0 C3.96 0 7.92 0 12 0 C13.00460531 2.12282669 14.00355602 4.24833021 15 6.375 C15.556875 7.55835938 16.11375 8.74171875 16.6875 9.9609375 C18 13 18 13 18 15 C14.04 15 10.08 15 6 15 C4.66666667 12.33333333 3.33333333 9.66666667 2 7 C1.62617188 6.31421875 1.25234375 5.6284375 0.8671875 4.921875 C0 3 0 3 0 0 Z " fill="#F8BC45" transform="translate(375,221)"/>
<path d="M0 0 C3.3 0 6.6 0 10 0 C9.08213439 5.36226751 7.07331729 9.98390978 5 15 C1.04 15 -2.92 15 -7 15 C-5.44397006 9.48316659 -2.84444899 4.94035877 0 0 Z " fill="#DDAA49" transform="translate(214,221)"/>
<path d="M0 0 C2.97 0 5.94 0 9 0 C10.16907584 2.31131066 11.33535892 4.62395623 12.5 6.9375 C12.83386719 7.59685547 13.16773438 8.25621094 13.51171875 8.93554688 C16 13.88671875 16 13.88671875 16 15 C12.37 15 8.74 15 5 15 C4.16013916 13.06532058 3.32831973 11.12714871 2.5 9.1875 C2.0359375 8.10855469 1.571875 7.02960938 1.09375 5.91796875 C0 3 0 3 0 0 Z " fill="#E2CB56" transform="translate(363,192)"/>
<path d="M0 0 C2.64 0 5.28 0 8 0 C7.24029922 3.35867712 6.12906745 6.52123658 4.9375 9.75 C4.57527344 10.73484375 4.21304688 11.7196875 3.83984375 12.734375 C3.56269531 13.48203125 3.28554687 14.2296875 3 15 C0.03 15 -2.94 15 -6 15 C-5.39644592 11.14974121 -4.23227397 8.13898841 -2.4375 4.6875 C-1.98246094 3.80449219 -1.52742187 2.92148438 -1.05859375 2.01171875 C-0.53458984 1.01591797 -0.53458984 1.01591797 0 0 Z " fill="#D5BD47" transform="translate(228,192)"/>
<path d="M0 0 C5.94 0 11.88 0 18 0 C24 12.75 24 12.75 24 15 C17.73 15 11.46 15 5 15 C0 3.375 0 3.375 0 0 Z M2 2 C2 2.99 2 3.98 2 5 C2.66 5 3.32 5 4 5 C4.144375 5.94875 4.28875 6.8975 4.4375 7.875 C4.82935399 10.8934494 4.82935399 10.8934494 6 13 C6.99 13 7.98 13 9 13 C9 12.34 9 11.68 9 11 C10.051875 11.495 10.051875 11.495 11.125 12 C14.26003116 13.09044562 16.70563182 13.15322643 20 13 C19.67 10.69 19.34 8.38 19 6 C18.34 6 17.68 6 17 6 C17 5.01 17 4.02 17 3 C14.11584117 1.55792059 11.58278472 1.90605113 8.375 1.9375 C6.59222656 1.95103516 6.59222656 1.95103516 4.7734375 1.96484375 C3.40058594 1.98224609 3.40058594 1.98224609 2 2 Z " fill="#D6C046" transform="translate(411,307)"/>
<path d="M0 0 C2.64 0 5.28 0 8 0 C8.83819158 1.62249941 9.6704116 3.24808497 10.5 4.875 C10.9640625 5.77992188 11.428125 6.68484375 11.90625 7.6171875 C13 10 13 10 13 12 C10.03 12 7.06 12 4 12 C2.66666667 8 1.33333333 4 0 0 Z " fill="#E3AE45" transform="translate(352,167)"/>
<path d="M0 0 C8.25 0 16.5 0 25 0 C25.845625 2.3925 26.69125 4.785 27.5625 7.25 C27.83263916 7.99668945 28.10277832 8.74337891 28.38110352 9.51269531 C30.46675031 15.59222083 30.46675031 15.59222083 29 19 C28.49440092 17.56445975 27.9957251 16.1264798 27.5 14.6875 C27.2215625 13.88699219 26.943125 13.08648437 26.65625 12.26171875 C26 10 26 10 26 7 C25.34 7 24.68 7 24 7 C23.67 5.68 23.34 4.36 23 3 C16.07 2.67 9.14 2.34 2 2 C2 4.64 2 7.28 2 10 C1.67 10 1.34 10 1 10 C0.67 6.7 0.34 3.4 0 0 Z " fill="#BF833A" transform="translate(445,393)"/>
<path d="M0 0 C2.31 0 4.62 0 7 0 C5.68938409 4.23429756 4.05643741 8.07407404 2 12 C-0.31 12 -2.62 12 -5 12 C-3.68938409 7.76570244 -2.05643741 3.92592596 0 0 Z " fill="#DBAA4B" transform="translate(240,167)"/>
<path d="M0 0 C2.31 0 4.62 0 7 0 C6.690625 0.556875 6.38125 1.11375 6.0625 1.6875 C4.94238179 4.12540433 4.43962636 6.36224186 4 9 C3.34 9 2.68 9 2 9 C1.67 9.99 1.34 10.98 1 12 C-0.65 12 -2.3 12 -4 12 C-4 10.02 -4 8.04 -4 6 C-3.34 6 -2.68 6 -2 6 C-1.7834375 5.071875 -1.7834375 5.071875 -1.5625 4.125 C-1 2 -1 2 0 0 Z " fill="#FDDE40" transform="translate(201,251)"/>
<path d="M0 0 C1.93166016 0.01740234 1.93166016 0.01740234 3.90234375 0.03515625 C5.19269531 0.04417969 6.48304688 0.05320312 7.8125 0.0625 C8.81152344 0.07410156 9.81054688 0.08570313 10.83984375 0.09765625 C10.38449276 1.66102798 9.92541599 3.22331474 9.46484375 4.78515625 C9.08199219 6.09033203 9.08199219 6.09033203 8.69140625 7.421875 C7.86367061 10.02278744 6.85353566 12.56342648 5.83984375 15.09765625 C0.55984375 15.09765625 -4.72015625 15.09765625 -10.16015625 15.09765625 C-9.19078125 12.80828125 -8.22140625 10.51890625 -7.22265625 8.16015625 C-6.91851807 7.43836182 -6.61437988 6.71656738 -6.30102539 5.97290039 C-3.8063869 0.11762629 -3.8063869 0.11762629 0 0 Z M-3.16015625 1.09765625 C-3.82015625 2.87140625 -4.48015625 4.64515625 -5.16015625 6.47265625 C-5.53140625 7.47039062 -5.90265625 8.468125 -6.28515625 9.49609375 C-7.26641902 11.95613686 -7.26641902 11.95613686 -7.16015625 14.09765625 C-3.20015625 14.09765625 0.75984375 14.09765625 4.83984375 14.09765625 C5.16984375 11.45765625 5.49984375 8.81765625 5.83984375 6.09765625 C6.49984375 6.09765625 7.15984375 6.09765625 7.83984375 6.09765625 C8.16984375 4.44765625 8.49984375 2.79765625 8.83984375 1.09765625 C4.87984375 1.09765625 0.91984375 1.09765625 -3.16015625 1.09765625 Z " fill="#D1A54C" transform="translate(189.16015625,277.90234375)"/>
<path d="M0 0 C7.92 0 15.84 0 24 0 C23.69069891 4.04193468 23.37768154 8.08352323 23.0625 12.125 C22.97548828 13.26710938 22.88847656 14.40921875 22.79882812 15.5859375 C22.71181641 16.69453125 22.62480469 17.803125 22.53515625 18.9453125 C22.456604 19.96125488 22.37805176 20.97719727 22.29711914 22.02392578 C21.99531094 25.04696767 21.53217866 28.00966274 21 31 C20.67 31 20.34 31 20 31 C19.97316013 28.02077407 19.95323963 25.04178705 19.9375 22.0625 C19.92912109 21.21236328 19.92074219 20.36222656 19.91210938 19.48632812 C19.90727539 18.27299805 19.90727539 18.27299805 19.90234375 17.03515625 C19.89448853 15.91185913 19.89448853 15.91185913 19.88647461 14.76586914 C20 13 20 13 21 12 C21.23363881 10.15108054 21.41303635 8.29511969 21.5625 6.4375 C21.706875 4.643125 21.85125 2.84875 22 1 C14.74 1 7.48 1 0 1 C0 0.67 0 0.34 0 0 Z " fill="#CF8E41" transform="translate(131,393)"/>
<path d="M0 0 C0.66666667 1.33333333 1.33333333 2.66666667 2 4 C2.37125 4.680625 2.7425 5.36125 3.125 6.0625 C4 8 4 8 4 11 C4.52078125 10.84660156 5.0415625 10.69320313 5.578125 10.53515625 C8.63278515 9.86017489 11.63015971 9.65588882 14.75 9.4375 C16.50570313 9.31181641 16.50570313 9.31181641 18.296875 9.18359375 C19.18890625 9.12300781 20.0809375 9.06242187 21 9 C21.33 7.68 21.66 6.36 22 5 C21.34 5 20.68 5 20 5 C20 4.01 20 3.02 20 2 C20.66 2 21.32 2 22 2 C24.03435531 5.72965139 25 7.66905042 25 12 C17.74 12 10.48 12 3 12 C-1 3 -1 3 0 0 Z " fill="#E3CC4E" transform="translate(437,367)"/>
<path d="M0 0 C3.96 0 7.92 0 12 0 C13.00460531 2.12282669 14.00355602 4.24833021 15 6.375 C15.556875 7.55835938 16.11375 8.74171875 16.6875 9.9609375 C18 13 18 13 18 15 C14.04 15 10.08 15 6 15 C6 14.67 6 14.34 6 14 C8.64 13.67 11.28 13.34 14 13 C13.67 12.34 13.34 11.68 13 11 C12.34 11 11.68 11 11 11 C11.061875 9.88625 11.12375 8.7725 11.1875 7.625 C11.125625 6.42875 11.06375 5.2325 11 4 C7.55549263 1.70366176 5.06187717 1.45983515 1 1 C0.67 1.66 0.34 2.32 0 3 C0 2.01 0 1.02 0 0 Z " fill="#D5A644" transform="translate(375,221)"/>
<path d="M0 0 C2 2 2 2 4 13 C-5.57 13 -15.14 13 -25 13 C-25 12.67 -25 12.34 -25 12 C-15.1 11.505 -15.1 11.505 -5 11 C-5 10.67 -5 10.34 -5 10 C-3.02 10 -1.04 10 1 10 C0.67 9.34 0.34 8.68 0 8 C-0.13415472 5.3276379 -0.04318541 2.67749512 0 0 Z " fill="#AD732D" transform="translate(477,419)"/>
<path d="M0 0 C2.31 0 4.62 0 7 0 C6.67 2.64 6.34 5.28 6 8 C5.34 8 4.68 8 4 8 C4 8.66 4 9.32 4 10 C1.35261084 11.4606285 0.10551666 12 -3 12 C-1.80100302 8.9168649 -0.52299523 5.93720508 1 3 C1.66 3 2.32 3 3 3 C3 2.34 3 1.68 3 1 C2.01 1.33 1.02 1.66 0 2 C0 1.34 0 0.68 0 0 Z " fill="#FCBD40" transform="translate(214,222)"/>
<path d="M0 0 C0.66 0 1.32 0 2 0 C2 0.66 2 1.32 2 2 C2.969375 2.144375 3.93875 2.28875 4.9375 2.4375 C8 3 8 3 9 4 C9.04080783 5.99958364 9.04254356 8.00045254 9 10 C6.69 10 4.38 10 2 10 C0.39644899 6.49223216 -0.22036864 3.85645121 0 0 Z " fill="#FBDE45" transform="translate(367,196)"/>
<path d="M0 0 C3.84682944 3.33391884 4.23755694 4.71267083 6 10 C-0.93 10 -7.86 10 -15 10 C-15 9.34 -15 8.68 -15 8 C-9.39 8 -3.78 8 2 8 C1.34 5.36 0.68 2.72 0 0 Z " fill="#B38C43" transform="translate(443,341)"/>
<path d="M0 0 C0.66 0 1.32 0 2 0 C2.33 1.65 2.66 3.3 3 5 C2.01 5.33 1.02 5.66 0 6 C-0.103125 7.11375 -0.20625 8.2275 -0.3125 9.375 C-0.539375 10.57125 -0.76625 11.7675 -1 13 C-1.99 13.66 -2.98 14.32 -4 15 C-4.72382467 17.05925139 -4.72382467 17.05925139 -5 19 C-5.99 19 -6.98 19 -8 19 C-6.00386732 12.2813095 -3.2708579 6.19265192 0 0 Z " fill="#BA7C5E" transform="translate(244,210)"/>
<path d="M0 0 C2.68199783 2.68199783 3.28665648 5.35295772 4.5 8.9375 C5.76840335 12.67696962 6.80718459 15.71077689 9 19 C8.67 20.32 8.34 21.64 8 23 C6.68 20.36 5.36 17.72 4 15 C2.68 15.33 1.36 15.66 0 16 C0.62759865 13.07120629 1.58622659 10.63904371 3 8 C2.34 8 1.68 8 1 8 C0.67 5.36 0.34 2.72 0 0 Z " fill="#BC7B5C" transform="translate(384,280)"/>
<path d="M0 0 C6.27 0 12.54 0 19 0 C18.67 1.65 18.34 3.3 18 5 C17.67 4.01 17.34 3.02 17 2 C12.05 1.67 7.1 1.34 2 1 C2 1.99 2 2.98 2 4 C3.32 4.33 4.64 4.66 6 5 C5 6 5 6 1.9375 6.0625 C0.968125 6.041875 -0.00125 6.02125 -1 6 C-1 6.66 -1 7.32 -1 8 C-1.66 8 -2.32 8 -3 8 C-1.125 2.25 -1.125 2.25 0 0 Z " fill="#E1AD4D" transform="translate(157,336)"/>
<path d="M0 0 C0.33 0.66 0.66 1.32 1 2 C0.67 2.99 0.34 3.98 0 5 C6.6 5 13.2 5 20 5 C19.67 5.66 19.34 6.32 19 7 C12.07 7 5.14 7 -2 7 C-1 1 -1 1 0 0 Z " fill="#AC9B38" transform="translate(139,373)"/>
<path d="M0 0 C0.93423645 3.01031744 1.04449911 3.86650268 0 7 C-0.66 7 -1.32 7 -2 7 C-2 8.98 -2 10.96 -2 13 C1.3 13 4.6 13 8 13 C7.67 13.66 7.34 14.32 7 15 C2.71 15 -1.58 15 -6 15 C-4.32819664 9.74576086 -2.62305301 4.87138415 0 0 Z " fill="#C5B34A" transform="translate(199,250)"/>
<path d="M0 0 C0.66 0.99 1.32 1.98 2 3 C1.34 3 0.68 3 0 3 C0 3.66 0 4.32 0 5 C5.94 5 11.88 5 18 5 C18 5.66 18 6.32 18 7 C11.4 7 4.8 7 -2 7 C-1 2 -1 2 0 0 Z " fill="#B38B40" transform="translate(153,344)"/>
<path d="M0 0 C5.94 0 11.88 0 18 0 C18 1.98 18 3.96 18 6 C17.67 5.01 17.34 4.02 17 3 C12.05 2.67 7.1 2.34 2 2 C1.67 2.99 1.34 3.98 1 5 C0.67 3.35 0.34 1.7 0 0 Z " fill="#DAC650" transform="translate(411,307)"/>
<path d="M0 0 C1.92578125 0.71875 1.92578125 0.71875 4 2 C4.79296875 4.09375 4.79296875 4.09375 5.1875 6.5 C5.75272916 9.85967912 5.75272916 9.85967912 7 13 C11.29 13 15.58 13 20 13 C20 13.66 20 14.32 20 15 C15.05 15 10.1 15 5 15 C0.84821429 3.75 0.84821429 3.75 0 0 Z " fill="#BDA945" transform="translate(387,250)"/>
<path d="M0 0 C0.83265381 0.00523682 1.66530762 0.01047363 2.52319336 0.01586914 C3.42231445 0.0190918 4.32143555 0.02231445 5.24780273 0.02563477 C6.66609375 0.03820312 6.66609375 0.03820312 8.11303711 0.05102539 C9.06243164 0.05553711 10.01182617 0.06004883 10.98999023 0.06469727 C13.34356776 0.07652429 15.69702188 0.09300514 18.05053711 0.11352539 C18.05053711 0.44352539 18.05053711 0.77352539 18.05053711 1.11352539 C13.89427343 2.12279018 10.00688617 2.21592118 5.73803711 2.17602539 C4.4837793 2.16700195 3.22952148 2.15797852 1.93725586 2.14868164 C0.98463867 2.13708008 0.03202148 2.12547852 -0.94946289 2.11352539 C-1.23821289 2.75290039 -1.52696289 3.39227539 -1.82446289 4.05102539 C-2.94946289 6.11352539 -2.94946289 6.11352539 -4.94946289 7.11352539 C-2.72992553 0.158975 -2.72992553 0.158975 0 0 Z " fill="#D7BE46" transform="translate(145.949462890625,363.886474609375)"/>
<path d="M0 0 C0.495 0.495 0.99 0.99 1.5 1.5 C0.51 1.83 -0.48 2.16 -1.5 2.5 C-1.5 1.84 -1.5 1.18 -1.5 0.5 C-3.14671412 0.80782496 -4.79235576 1.12139234 -6.4375 1.4375 C-7.35402344 1.61152344 -8.27054688 1.78554687 -9.21484375 1.96484375 C-11.45289844 2.27714988 -11.45289844 2.27714988 -12.5 3.5 C-14.49958364 3.54080783 -16.50045254 3.54254356 -18.5 3.5 C-14.69371542 -2.20942687 -5.86802543 -3.52081526 0 0 Z " fill="#34715C" transform="translate(156.5,69.5)"/>
<path d="M0 0 C1.485 0.99 1.485 0.99 3 2 C3 2.66 3 3.32 3 4 C4.03060547 3.98259766 4.03060547 3.98259766 5.08203125 3.96484375 C5.98308594 3.95582031 6.88414062 3.94679688 7.8125 3.9375 C8.70582031 3.92589844 9.59914063 3.91429687 10.51953125 3.90234375 C13 4 13 4 16 5 C16.33 3.68 16.66 2.36 17 1 C17.66 2.65 18.32 4.3 19 6 C13.39 6 7.78 6 2 6 C1.34 4.02 0.68 2.04 0 0 Z " fill="#D7AA54" transform="translate(402,287)"/>
<path d="M0 0 C1.5 1.125 1.5 1.125 3 3 C3.1875 6.1875 3.1875 6.1875 3 9 C0.36 8.67 -2.28 8.34 -5 8 C-3.62845496 5.04590299 -2.01136276 2.55991624 0 0 Z " fill="#F9BD46" transform="translate(415,283)"/>
<path d="M0 0 C1.1891713 3.71616032 1.34026535 7.12097502 1 11 C-1.13679285 14.38939556 -2.1774767 15.72582557 -6 17 C-4.33846988 11.14340094 -2.52958084 5.5409866 0 0 Z " fill="#BE7A5A" transform="translate(231,239)"/>
<path d="M0 0 C3.05071175 -0.287803 5.96060262 -0.4472872 9 0 C11.10361696 2.4223468 12 3.78245634 12 7 C9.03 6.505 9.03 6.505 6 6 C6 5.34 6 4.68 6 4 C5.01 4 4.02 4 3 4 C3 3.34 3 2.68 3 2 C2.01 1.34 1.02 0.68 0 0 Z " fill="#D9C041" transform="translate(363,192)"/>
<path d="M0 0 C0.33 0 0.66 0 1 0 C1.02689216 1.47906892 1.04634621 2.95827483 1.0625 4.4375 C1.07410156 5.26121094 1.08570313 6.08492188 1.09765625 6.93359375 C1 9 1 9 0 10 C-0.2165625 11.60875 -0.2165625 11.60875 -0.4375 13.25 C-0.92834991 16.52233274 -1.64209722 19.01261388 -3 22 C-3.66 21.67 -4.32 21.34 -5 21 C-4.35451147 18.24991865 -3.70862234 15.49993244 -3.0625 12.75 C-2.88009766 11.97269531 -2.69769531 11.19539063 -2.50976562 10.39453125 C-2.33251953 9.64042969 -2.15527344 8.88632812 -1.97265625 8.109375 C-1.72914429 7.07248535 -1.72914429 7.07248535 -1.48071289 6.01464844 C-1.0014338 4.00600899 -0.50453398 2.00243058 0 0 Z " fill="#D39243" transform="translate(130,394)"/>
<path d="M0 0 C-0.45082469 1.46067199 -0.91093537 2.91848032 -1.375 4.375 C-1.63023437 5.18710937 -1.88546875 5.99921875 -2.1484375 6.8359375 C-3 9 -3 9 -5 11 C-5.66 7.7 -6.32 4.4 -7 1 C-4.53721199 -0.231394 -2.7204945 -0.07159196 0 0 Z " fill="#F1D64C" transform="translate(164,365)"/>
<path d="M0 0 C0.99 0.495 0.99 0.495 2 1 C2.04125 1.825 2.0825 2.65 2.125 3.5 C3.46767209 8.87068838 7.20230082 12.10714207 11 16 C10.67 16.66 10.34 17.32 10 18 C8.62437146 16.71034824 7.29233607 15.37310707 6 14 C6 13.34 6 12.68 6 12 C4.35 11.67 2.7 11.34 1 11 C-0.28317892 7.15046324 -0.06643637 4.05261865 0 0 Z " fill="#8AC36F" transform="translate(122,249)"/>
<path d="M0 0 C0.33 0 0.66 0 1 0 C1.66 4.29 2.32 8.58 3 13 C3.66 13 4.32 13 5 13 C5 16.3 5 19.6 5 23 C-0.56561196 15.57918405 -0.2659985 8.99961585 0 0 Z " fill="#97D87A" transform="translate(55,229)"/>
<path d="M0 0 C4.95 0 9.9 0 15 0 C15.33 1.32 15.66 2.64 16 4 C15.29488281 3.83628906 14.58976562 3.67257812 13.86328125 3.50390625 C10.90341312 2.98300176 8.18938727 2.90133268 5.1875 2.9375 C4.21167969 2.94652344 3.23585938 2.95554687 2.23046875 2.96484375 C1.49441406 2.97644531 0.75835937 2.98804688 0 3 C0 2.01 0 1.02 0 0 Z " fill="#D3A44C" transform="translate(399,278)"/>
<path d="M0 0 C1.98 0 3.96 0 6 0 C5.125 4.75 5.125 4.75 4 7 C2.68 7 1.36 7 0 7 C-1.125 2.25 -1.125 2.25 0 0 Z " fill="#FBDF41" transform="translate(229,193)"/>
<path d="M0 0 C0.33 0 0.66 0 1 0 C1 8.58 1 17.16 1 26 C0.01 26 -0.98 26 -2 26 C-1.34 17.42 -0.68 8.84 0 0 Z " fill="#35745F" transform="translate(170,178)"/>
<path d="M0 0 C1.66748747 2.50123121 2.89954361 4.77676357 4.125 7.5 C4.47820312 8.2734375 4.83140625 9.046875 5.1953125 9.84375 C6 12 6 12 6 15 C5.01 14.67 4.02 14.34 3 14 C3 13.34 3 12.68 3 12 C2.34 12 1.68 12 1 12 C0.03929566 9.11788698 -0.10581883 7.30149956 -0.0625 4.3125 C-0.05347656 3.50425781 -0.04445313 2.69601562 -0.03515625 1.86328125 C-0.02355469 1.24839844 -0.01195312 0.63351562 0 0 Z " fill="#C08163" transform="translate(419,364)"/>
<path d="M0 0 C0.33 0 0.66 0 1 0 C1.23509196 4.81938524 0.45184478 8.46298506 -1 13 C-2.32 13.33 -3.64 13.66 -5 14 C-3.45730076 9.27934033 -1.92205381 4.58335908 0 0 Z " fill="#C38467" transform="translate(261,168)"/>
<path d="M0 0 C1 2 1 2 0.4765625 3.875 C0.05503906 4.926875 0.05503906 4.926875 -0.375 6 C-0.65085937 6.70125 -0.92671875 7.4025 -1.2109375 8.125 C-1.76277726 9.43630239 -2.3637546 10.72750919 -3 12 C-3.66 12 -4.32 12 -5 12 C-5.33 13.65 -5.66 15.3 -6 17 C-7.23306978 14.07323092 -7.01493635 13.03773655 -5.8203125 10.01953125 C-5.26085937 8.96121094 -4.70140625 7.90289062 -4.125 6.8125 C-3.57070312 5.74644531 -3.01640625 4.68039063 -2.4453125 3.58203125 C-1 1 -1 1 0 0 Z " fill="#83BE66" transform="translate(77,170)"/>
<path d="M0 0 C3.3 0 6.6 0 10 0 C9.33501617 4.38889325 7.81242323 7.9811485 6 12 C5.34 11.67 4.68 11.34 4 11 C4 10.34 4 9.68 4 9 C4.66 9 5.32 9 6 9 C6 6.69 6 4.38 6 2 C3.03 1.505 3.03 1.505 0 1 C0 0.67 0 0.34 0 0 Z " fill="#CFA146" transform="translate(214,221)"/>
<path d="M0 0 C-0.66 1.65 -1.32 3.3 -2 5 C-2.99 5 -3.98 5 -5 5 C-6.6877081 6.76401402 -6.6877081 6.76401402 -8.1875 9 C-8.71730469 9.7425 -9.24710937 10.485 -9.79296875 11.25 C-10.19128906 11.8275 -10.58960937 12.405 -11 13 C-11.99 12.34 -12.98 11.68 -14 11 C-12.56564079 9.5385774 -11.12739414 8.08096951 -9.6875 6.625 C-8.88699219 5.81289062 -8.08648437 5.00078125 -7.26171875 4.1640625 C-2.90974729 0 -2.90974729 0 0 0 Z " fill="#555555" transform="translate(108,105)"/>
<path d="M0 0 C3.96 0 7.92 0 12 0 C12.99 2.97 13.98 5.94 15 9 C14.01 9 13.02 9 12 9 C11.855625 8.05125 11.71125 7.1025 11.5625 6.125 C10.37038249 2.87141432 10.37038249 2.87141432 7.86328125 2.15625 C5.57773573 1.66828424 3.3201228 1.27688708 1 1 C0.67 1.66 0.34 2.32 0 3 C0 2.01 0 1.02 0 0 Z " fill="#C29B46" transform="translate(375,221)"/>
<path d="M0 0 C4.16217431 5.06699482 4.14119546 9.34540028 4.0625 15.75 C4.05798828 16.44738281 4.05347656 17.14476562 4.04882812 17.86328125 C4.0371002 19.57555803 4.01916653 21.28779033 4 23 C3.67 23 3.34 23 3 23 C2.92652344 21.69675781 2.92652344 21.69675781 2.8515625 20.3671875 C2.77679688 19.21476562 2.70203125 18.06234375 2.625 16.875 C2.55539063 15.73804688 2.48578125 14.60109375 2.4140625 13.4296875 C2.00471322 10.03903968 1.09703108 7.21974161 0 4 C0 2.68 0 1.36 0 0 Z " fill="#469362" transform="translate(137,130)"/>
<path d="M0 0 C5.28 0 10.56 0 16 0 C15.01 3.63 14.02 7.26 13 11 C12.67 11 12.34 11 12 11 C12.33 7.7 12.66 4.4 13 1 C8.71 1 4.42 1 0 1 C0 0.67 0 0.34 0 0 Z " fill="#D0BE4C" transform="translate(172,307)"/>
<path d="M0 0 C0.99 0.99 1.98 1.98 3 3 C2 6 2 6 0 7 C-0.33 7.99 -0.66 8.98 -1 10 C-1.99 10 -2.98 10 -4 10 C-3.52449439 8.51965236 -3.04448784 7.04074979 -2.5625 5.5625 C-2.29566406 4.73878906 -2.02882812 3.91507812 -1.75390625 3.06640625 C-1 1 -1 1 0 0 Z " fill="#BF7D5D" transform="translate(187,346)"/>
<path d="M0 0 C1.22589844 0.15275391 1.22589844 0.15275391 2.4765625 0.30859375 C3.41628906 0.43427734 3.41628906 0.43427734 4.375 0.5625 C4.375 1.2225 4.375 1.8825 4.375 2.5625 C3.79492188 2.55089844 3.21484375 2.53929688 2.6171875 2.52734375 C-1.9248246 2.47487826 -6.15213569 2.64498937 -10.625 3.5625 C-6.69868091 0.55232203 -4.96380923 -0.63820404 0 0 Z " fill="#53AD75" transform="translate(121.625,116.4375)"/>
<path d="M0 0 C1.64750929 2.47126394 2.93723705 4.7609443 4.1875 7.4375 C4.55230469 8.19933594 4.91710937 8.96117187 5.29296875 9.74609375 C6.09093521 12.28988738 5.8852947 13.52455813 5 16 C3 15 3 15 1.9375 11.9375 C0.89772794 7.99127849 0.42676034 4.05422323 0 0 Z " fill="#C38163" transform="translate(406,333)"/>
<path d="M0 0 C2.0625 0.4375 2.0625 0.4375 4 1 C3.34 1.66 2.68 2.32 2 3 C1.54152311 5.36030696 1.17856869 7.7398174 0.875 10.125 C0.70742187 11.40632812 0.53984375 12.68765625 0.3671875 14.0078125 C0.24601563 14.99523437 0.12484375 15.98265625 0 17 C-0.33 17 -0.66 17 -1 17 C-1.02684679 14.35409986 -1.04676357 11.70846904 -1.0625 9.0625 C-1.07087891 8.30775391 -1.07925781 7.55300781 -1.08789062 6.77539062 C-1.09652441 4.85005687 -1.05224333 2.92464419 -1 1 C-0.67 0.67 -0.34 0.34 0 0 Z " fill="#4D423F" transform="translate(179,217)"/>
<path d="M0 0 C0.93423645 3.01031744 1.04449911 3.86650268 0 7 C2.31 7 4.62 7 7 7 C3.375 10 3.375 10 0 10 C-1.60339848 6.88228073 -2.18974141 5.60988311 -1.125 2.1875 C-0.75375 1.465625 -0.3825 0.74375 0 0 Z " fill="#52A26F" transform="translate(140,244)"/>
<path d="M0 0 C0.66 0 1.32 0 2 0 C2.33 1.65 2.66 3.3 3 5 C2.01 5.33 1.02 5.66 0 6 C-0.33 6.99 -0.66 7.98 -1 9 C-1.99 9.33 -2.98 9.66 -4 10 C-3.52449439 8.51965236 -3.04448784 7.04074979 -2.5625 5.5625 C-2.29566406 4.73878906 -2.02882812 3.91507813 -1.75390625 3.06640625 C-1 1 -1 1 0 0 Z " fill="#C48264" transform="translate(244,210)"/>
<path d="M0 0 C1.65 0 3.3 0 5 0 C4.01 2.97 3.02 5.94 2 9 C1.67 7.68 1.34 6.36 1 5 C0.34 4.67 -0.32 4.34 -1 4 C-0.67 2.68 -0.34 1.36 0 0 Z " fill="#EFBB4C" transform="translate(241,168)"/>
<path d="M0 0 C1.10844919 3.32534757 0.84454356 5.62182575 0 9 C-0.99 9.33 -1.98 9.66 -3 10 C-3 10.99 -3 11.98 -3 13 C-3.66 13 -4.32 13 -5 13 C-4.54554036 11.58208592 -4.08625056 10.16571954 -3.625 8.75 C-3.24214844 7.56664062 -3.24214844 7.56664062 -2.8515625 6.359375 C-2.04826333 4.13372042 -1.10288338 2.09068328 0 0 Z " fill="#A86F53" transform="translate(197,321)"/>
<path d="M0 0 C1.32 0.66 2.64 1.32 4 2 C3.01 2.33 2.02 2.66 1 3 C1 4.32 1 5.64 1 7 C-0.375 8.75 -0.375 8.75 -2 10 C-2.66 10 -3.32 10 -4 10 C-2.8905928 6.51329166 -1.73662334 3.22515763 0 0 Z " fill="#E4CE4B" transform="translate(170,310)"/>
<path d="M0 0 C4.0081803 3.67416528 6.52591615 7.14346504 9 12 C9 12.66 9 13.32 9 14 C8.34 14 7.68 14 7 14 C6.74605469 13.45730469 6.49210937 12.91460937 6.23046875 12.35546875 C5.71419922 11.28232422 5.71419922 11.28232422 5.1875 10.1875 C4.85105469 9.47980469 4.51460938 8.77210938 4.16796875 8.04296875 C3.0948316 5.94330787 3.0948316 5.94330787 1.36328125 4.42578125 C0 3 0 3 0 0 Z " fill="#94CF7D" transform="translate(116,206)"/>
<path d="M0 0 C1.19733746 4.00548142 0.66358584 6.1182997 -1 10 C-3.125 12.875 -3.125 12.875 -5 15 C-4.43174347 9.45949887 -2.37113483 4.96284034 0 0 Z " fill="#43390C" transform="translate(236,192)"/>
<path d="M0 0 C2.34914492 2.34914492 2.73140357 3.95679446 3.625 7.125 C3.88539063 8.03507812 4.14578125 8.94515625 4.4140625 9.8828125 C4.70410156 10.93082031 4.70410156 10.93082031 5 12 C3.68 11.67 2.36 11.34 1 11 C-0.17571451 7.32589215 -0.07366746 3.83070817 0 0 Z " fill="#A96F52" transform="translate(395,306)"/>
<path d="M0 0 C0.66 0 1.32 0 2 0 C1.67 1.65 1.34 3.3 1 5 C0.67 4.34 0.34 3.68 0 3 C-4.95 3 -9.9 3 -15 3 C-15 2.67 -15 2.34 -15 2 C-10.05 2 -5.1 2 0 2 C0 1.34 0 0.68 0 0 Z " fill="#170A03" transform="translate(414,275)"/>
<path d="M0 0 C2.64 0 5.28 0 8 0 C8.66 1.98 9.32 3.96 10 6 C9.34 6 8.68 6 8 6 C7.67 5.01 7.34 4.02 7 3 C5.02 3 3.04 3 1 3 C0.67 2.01 0.34 1.02 0 0 Z " fill="#C49D4C" transform="translate(352,167)"/>
<path d="M0 0 C2.37783838 2.37783838 2.59009208 3.72073665 3 7 C2.67 7.66 2.34 8.32 2 9 C1.01 8.67 0.02 8.34 -1 8 C-1.04241723 5.66705225 -1.04092937 3.33297433 -1 1 C-0.67 0.67 -0.34 0.34 0 0 Z " fill="#CC8664" transform="translate(413,350)"/>
<path d="M0 0 C1.32 0.33 2.64 0.66 4 1 C4.66 0.67 5.32 0.34 6 0 C5.690625 0.9075 5.38125 1.815 5.0625 2.75 C4.28175145 5.13817205 3.60938416 7.56246334 3 10 C2.01 6.7 1.02 3.4 0 0 Z " fill="#54B778" transform="translate(120,171)"/>
<path d="M0 0 C0.33 0 0.66 0 1 0 C1.43200679 4.75207471 -0.01510917 7.78210698 -2 12 C-2.66 12 -3.32 12 -4 12 C-3.52309796 10.37433394 -3.04340334 8.74948689 -2.5625 7.125 C-2.29566406 6.22007812 -2.02882812 5.31515625 -1.75390625 4.3828125 C-1 2 -1 2 0 0 Z " fill="#BC7F61" transform="translate(250,194)"/>
<path d="M0 0 C2.1385485 2.1385485 2.42655063 3.13275314 3 6 C1.02 6 -0.96 6 -3 6 C-2.625 3.5625 -2.625 3.5625 -2 1 C-1.34 0.67 -0.68 0.34 0 0 Z " fill="#FADF43" transform="translate(227,200)"/>
<path d="M0 0 C0.66 0 1.32 0 2 0 C3.32 2.64 4.64 5.28 6 8 C4.35 7.67 2.7 7.34 1 7 C0.67 4.69 0.34 2.38 0 0 Z " fill="#418970" transform="translate(162,76)"/>
<path d="M0 0 C1 4 1 4 0.00390625 5.703125 C-1.33072917 7.13541667 -2.66536458 8.56770833 -4 10 C-4.66 9.67 -5.32 9.34 -6 9 C-4.02 6.03 -2.04 3.06 0 0 Z " fill="#4F4240" transform="translate(69,341)"/>
<path d="M0 0 C0.33 0 0.66 0 1 0 C1.3125 2.1875 1.3125 2.1875 1 5 C-1.5 7.8125 -1.5 7.8125 -4 10 C-4.66 9.67 -5.32 9.34 -6 9 C-5.02501855 7.4972763 -4.04490611 5.99788037 -3.0625 4.5 C-2.51722656 3.6646875 -1.97195312 2.829375 -1.41015625 1.96875 C-0.94480469 1.3190625 -0.47945313 0.669375 0 0 Z " fill="#574B49" transform="translate(82,322)"/>
<path d="M0 0 C0.66 0.66 1.32 1.32 2 2 C4.65537372 2.56520003 7.29144713 2.73788198 10 3 C10 3.33 10 3.66 10 4 C4.72 4 -0.56 4 -6 4 C-6 3.67 -6 3.34 -6 3 C-5.195625 2.87625 -4.39125 2.7525 -3.5625 2.625 C-2.716875 2.41875 -1.87125 2.2125 -1 2 C-0.67 1.34 -0.34 0.68 0 0 Z " fill="#F8DE52" transform="translate(172,317)"/>
<path d="M0 0 C0.66 0.33 1.32 0.66 2 1 C-2.625 5.875 -2.625 5.875 -6 7 C-6.66 6.34 -7.32 5.68 -8 5 C-6.71475739 4.13619741 -5.42157581 3.28419631 -4.125 2.4375 C-3.04605469 1.72400391 -3.04605469 1.72400391 -1.9453125 0.99609375 C-1.30335938 0.66738281 -0.66140625 0.33867187 0 0 Z " fill="#514642" transform="translate(132,305)"/>
<path d="M0 0 C-1.49097658 3.7952131 -3.75700849 5.61042731 -7 8 C-7 5 -7 5 -4.625 2.3125 C-2 0 -2 0 0 0 Z " fill="#3A3A3A" transform="translate(73,156)"/>
<path d="M0 0 C1.39864092 3.17872935 0.89282517 4.30111022 -0.3125 7.6875 C-2 11 -2 11 -4 12 C-2.66666667 8 -1.33333333 4 0 0 Z " fill="#BC8066" transform="translate(212,285)"/>
<path d="M0 0 C1.32 0.33 2.64 0.66 4 1 C1.36 2.98 -1.28 4.96 -4 7 C-2.73033708 1.92134831 -2.73033708 1.92134831 0 0 Z " fill="#8AC670" transform="translate(125,290)"/>
<path d="M0 0 C1.99097846 2.98646769 2.94124926 5.59687262 4 9 C3.01 9.495 3.01 9.495 2 10 C0.4375 8.375 0.4375 8.375 -1 6 C-0.6875 2.75 -0.6875 2.75 0 0 Z " fill="#C1815D" transform="translate(371,249)"/>
<path d="M0 0 C0.99 0.33 1.98 0.66 3 1 C1.35 2.65 -0.3 4.3 -2 6 C-2.99 5.67 -3.98 5.34 -5 5 C-3.35 3.35 -1.7 1.7 0 0 Z " fill="#8AC96E" transform="translate(65,206)"/>
<path d="M0 0 C0.33 0.99 0.66 1.98 1 3 C-1.31 3 -3.62 3 -6 3 C-6.66 4.32 -7.32 5.64 -8 7 C-7.8125 4.625 -7.8125 4.625 -7 2 C-4.54236535 0.67665827 -2.79402354 0 0 0 Z " fill="#170600" transform="translate(246,164)"/>
<path d="M0 0 C2.27795022 2.27795022 3.05219877 3.93787293 4 7 C3.625 9.3125 3.625 9.3125 3 11 C0.43383368 7.15075052 0.44902324 4.5650696 0 0 Z " fill="#B87A5E" transform="translate(363,230)"/>
<path d="M0 0 C2.6855594 2.6855594 3.06049974 5.37621328 4 9 C3.34 9 2.68 9 2 9 C1.67 8.01 1.34 7.02 1 6 C0.34 5.67 -0.32 5.34 -1 5 C-0.67 3.35 -0.34 1.7 0 0 Z " fill="#AD7157" transform="translate(354,208)"/>
<path d="M0 0 C1.98 0 3.96 0 6 0 C5.67 1.65 5.34 3.3 5 5 C4.67 4.01 4.34 3.02 4 2 C2.35 2.66 0.7 3.32 -1 4 C-0.67 2.68 -0.34 1.36 0 0 Z " fill="#F6DB52" transform="translate(229,193)"/>
<path d="M0 0 C3.00617269 3.00617269 2.59585316 5.82381598 3 10 C2.67 9.34 2.34 8.68 2 8 C1.34 8 0.68 8 0 8 C0 5.36 0 2.72 0 0 Z " fill="#8B5239" transform="translate(435,418)"/>
<path d="M0 0 C0.66 0.99 1.32 1.98 2 3 C1.67 3.66 1.34 4.32 1 5 C-1.5625 5.625 -1.5625 5.625 -4 6 C-2.84826645 3.53199953 -1.95216435 1.95216435 0 0 Z " fill="#8DCE6F" transform="translate(53,259)"/>
<path d="M0 0 C1.98 1.65 3.96 3.3 6 5 C4.02 5.99 4.02 5.99 2 7 C0.5393715 4.35261084 0 3.10551666 0 0 Z " fill="#55B579" transform="translate(154,209)"/>
<path d="M0 0 C2.31 0 4.62 0 7 0 C6.67 0.66 6.34 1.32 6 2 C4.35 1.67 2.7 1.34 1 1 C1 2.65 1 4.3 1 6 C0.01 6 -0.98 6 -2 6 C-1.34 4.02 -0.68 2.04 0 0 Z " fill="#BC924A" transform="translate(240,167)"/>
<path d="M0 0 C0.66 0.99 1.32 1.98 2 3 C0 5 0 5 -2.625 5.125 C-3.40875 5.08375 -4.1925 5.0425 -5 5 C-3.35 3.35 -1.7 1.7 0 0 Z " fill="#93CB70" transform="translate(83,165)"/>
<path d="M0 0 C3.36720387 1.39332574 4.9859524 2.9789286 7 6 C6.67 6.66 6.34 7.32 6 8 C4.99403703 7.0479279 3.99538437 6.08812654 3 5.125 C2.443125 4.59132813 1.88625 4.05765625 1.3125 3.5078125 C0 2 0 2 0 0 Z " fill="#4FA671" transform="translate(129,120)"/>
<path d="M0 0 C2.9375 0.75 2.9375 0.75 6 2 C6.875 4.125 6.875 4.125 7 6 C3.73539027 4.19587357 2.11070205 3.16605307 0 0 Z " fill="#36735E" transform="translate(136,107)"/>
<path d="M0 0 C2.79872437 2.52788007 4.45773019 4.20411134 5 8 C4.01 8 3.02 8 2 8 C1.34 5.36 0.68 2.72 0 0 Z " fill="#E4B14D" transform="translate(443,341)"/>
<path d="M0 0 C0.33 0.66 0.66 1.32 1 2 C0.22265625 3.7265625 0.22265625 3.7265625 -0.9375 5.625 C-1.618125 6.73875 -2.29875 7.8525 -3 9 C-3.66 8.34 -4.32 7.68 -5 7 C-4.67 6.01 -4.34 5.02 -4 4 C-3.34 4 -2.68 4 -2 4 C-1.34 2.68 -0.68 1.36 0 0 Z " fill="#4B3D39" transform="translate(190,237)"/>
<path d="M0 0 C0.99 0.33 1.98 0.66 3 1 C3.33 3.64 3.66 6.28 4 9 C1.49701566 6.06171403 0.53069061 3.82097239 0 0 Z " fill="#1B0D00" transform="translate(386,219)"/>
<path d="M0 0 C0.99 0.99 1.98 1.98 3 3 C1.68 4.32 0.36 5.64 -1 7 C-1.625 5.1875 -1.625 5.1875 -2 3 C-1.34 2.01 -0.68 1.02 0 0 Z " fill="#3B896F" transform="translate(184,193)"/>
</svg>
